<svg width="24" height="24" viewBox="0 0 24 24" fill="none" xmlns="http://www.w3.org/2000/svg">
<path fill-rule="evenodd" clip-rule="evenodd" d="M12.5 4C12.7761 4 13 4.22386 13 4.5C13 4.77614 13.2239 5 13.5 5H16.895H18.5C18.7761 5 19 5.22386 19 5.5C19 5.77614 18.7761 6 18.5 6H17.8951C17.8951 6.03286 17.8934 6.06606 17.89 6.0995L16.59 19.0995C16.5389 19.6107 16.1088 20 15.595 20H8.40499C7.89124 20 7.46107 19.6107 7.40995 19.0995L6.10995 6.09951C6.10661 6.06606 6.10494 6.03286 6.10489 6H5.5C5.22386 6 5 5.77614 5 5.5C5 5.22386 5.22386 5 5.5 5H7.10499H10.5C10.7761 5 11 4.77614 11 4.5C11 4.22386 11.2239 4 11.5 4H12.5ZM7.10499 6L8.40499 19L15.595 19L16.895 6H13H11H7.10499Z" fill="black" fill-opacity="0.5"/>
</svg>
