<svg width="24" height="24" viewBox="0 0 24 24" fill="none" xmlns="http://www.w3.org/2000/svg">
<path fill-rule="evenodd" clip-rule="evenodd" d="M5.72188 8.90398C5.10955 10.1457 4.87917 11.5411 5.05988 12.9137C5.24059 14.2863 5.82427 15.5745 6.73711 16.6154C7.64996 17.6563 8.85096 18.4032 10.1883 18.7615L9.92944 19.7274C8.4011 19.3179 7.02852 18.4644 5.98527 17.2748C4.94202 16.0852 4.27496 14.6129 4.06843 13.0442C3.86191 11.4755 4.1252 9.88077 4.82501 8.46169C5.52482 7.04262 6.62972 5.86293 7.99999 5.0718C9.37026 4.28068 10.9444 3.91365 12.5232 4.01713C14.1021 4.12062 15.6148 4.68996 16.8701 5.65318C18.1254 6.61639 19.0668 7.93021 19.5754 9.42849C20.0621 10.8622 20.1315 12.4031 19.7778 13.8724L22.6327 12.2241C22.8719 12.086 23.1777 12.1679 23.3158 12.4071C23.4538 12.6462 23.3719 12.952 23.1327 13.0901L19.2356 15.3401C18.9965 15.4782 18.6907 15.3962 18.5526 15.1571L16.3026 11.26C16.1645 11.0208 16.2465 10.715 16.4856 10.5769C16.7248 10.4389 17.0306 10.5208 17.1686 10.76L18.8128 13.6078C19.1141 12.3314 19.051 10.9945 18.6285 9.74993C18.1835 8.43893 17.3597 7.28934 16.2613 6.44653C15.1629 5.60372 13.8393 5.10554 12.4578 5.01499C11.0763 4.92444 9.69898 5.24559 8.49999 5.93783C7.30101 6.63006 6.33422 7.66229 5.72188 8.90398Z" fill="black" fill-opacity="0.5"/>
</svg>
